<?xml version="1.0" encoding="UTF-8"?>
<!DOCTYPE svg PUBLIC "-//W3C//DTD SVG 1.1//EN" "http://www.w3.org/Graphics/SVG/1.1/DTD/svg11.dtd">
<svg xmlns="http://www.w3.org/2000/svg" version="1.1" width="1204px" height="344px" style="shape-rendering:geometricPrecision; text-rendering:geometricPrecision; image-rendering:optimizeQuality; fill-rule:evenodd; clip-rule:evenodd" xmlns:xlink="http://www.w3.org/1999/xlink">
<g><path style="opacity:0.988" fill="#75161d" d="M 16.5,7.5 C 38.5025,7.33337 60.5025,7.50004 82.5,8C 84.286,8.78451 85.786,9.95118 87,11.5C 88.321,84.7893 88.9876,158.123 89,231.5C 90.162,256.991 103.329,271.157 128.5,274C 149.531,274.727 170.531,274.227 191.5,272.5C 191.333,186.499 191.5,100.499 192,14.5C 192.739,11.4265 194.572,9.25985 197.5,8C 221.164,7.50003 244.831,7.33337 268.5,7.5C 268.667,110.167 268.5,212.834 268,315.5C 267.142,322.727 263.308,327.56 256.5,330C 220.116,336.143 183.449,339.31 146.5,339.5C 118.93,340.888 92.2631,336.721 66.5,327C 35.9052,312.018 18.4052,287.518 14,253.5C 12.3423,244.238 11.3423,234.905 11,225.5C 10.3333,155.167 10.3333,84.8333 11,14.5C 11.9668,11.3794 13.8001,9.04602 16.5,7.5 Z"/></g>
<g><path style="opacity:0.991" fill="#74171e" d="M 321.5,7.5 C 343.189,7.18343 364.855,7.68343 386.5,9C 412.433,10.4196 435.767,18.7529 456.5,34C 472.193,48.8792 482.026,67.0459 486,88.5C 488.21,99.7272 489.544,111.061 490,122.5C 490.667,192.833 490.667,263.167 490,333.5C 489.315,336.057 487.815,337.891 485.5,339C 462.833,339.667 440.167,339.667 417.5,339C 415.951,337.786 414.785,336.286 414,334.5C 413.667,263.167 413.333,191.833 413,120.5C 412.9,105.513 407.733,92.6798 397.5,82C 390.487,77.5507 382.82,74.884 374.5,74C 359.167,73.6667 343.833,73.3333 328.5,73C 325,72.1667 322.833,70 322,66.5C 321.5,46.8362 321.333,27.1695 321.5,7.5 Z"/></g>
<g><path style="opacity:0.975" fill="#74161d" d="M 548.5,7.5 C 569.836,7.33337 591.169,7.50004 612.5,8C 614.939,8.77385 616.773,10.2739 618,12.5C 618.971,29.5914 618.638,46.5914 617,63.5C 615.681,65.4875 613.848,66.6541 611.5,67C 589.769,67.9667 568.103,67.6333 546.5,66C 544.951,64.786 543.785,63.286 543,61.5C 542.333,45.5 542.333,29.5 543,13.5C 544.36,10.9774 546.193,8.97739 548.5,7.5 Z"/></g>
<g><path style="opacity:0.972" fill="#651319" d="M 710.5,35.5 C 725.402,34.4691 738.736,38.4691 750.5,47.5C 772.489,41.8192 794.822,39.9859 817.5,42C 829.35,42.7099 840.35,46.0432 850.5,52C 851.787,53.4095 852.954,54.9095 854,56.5C 861.002,73.8411 864.002,91.8411 863,110.5C 862.848,116.978 860.015,121.812 854.5,125C 847.41,127.885 840.077,129.219 832.5,129C 828.5,126 828.5,123 832.5,120C 841.193,116.279 844.359,109.779 842,100.5C 838.052,93.2192 832.218,88.0526 824.5,85C 798.334,77.2274 772.334,77.894 746.5,87C 740.146,112.566 733.479,138.066 726.5,163.5C 737.491,162.917 748.491,162.417 759.5,162C 765.987,161.377 772.32,160.377 778.5,159C 781.396,168.639 780.896,178.139 777,187.5C 775.352,188.717 773.519,189.55 771.5,190C 757.506,190.782 743.506,191.449 729.5,192C 724.708,192.217 720.041,193.05 715.5,194.5C 706.105,218.852 697.605,243.519 690,268.5C 687.381,277.141 687.047,285.807 689,294.5C 692.488,297.209 696.488,298.543 701,298.5C 712.537,297.157 723.704,294.324 734.5,290C 751.391,283.389 768.391,277.055 785.5,271C 793.552,267.282 801.219,267.782 808.5,272.5C 811.109,275.383 812.942,278.717 814,282.5C 814.976,292.285 814.31,301.951 812,311.5C 811.311,312.357 810.478,313.023 809.5,313.5C 805.176,307.111 799.176,304.944 791.5,307C 770.5,312.667 749.5,318.333 728.5,324C 674.51,334.011 652.677,312.177 663,258.5C 666.713,238.648 671.213,218.982 676.5,199.5C 665.982,178.429 660.315,156.096 659.5,132.5C 658.564,117.234 662.731,103.568 672,91.5C 676.833,86.6667 681.667,81.8333 686.5,77C 694.731,71.1061 703.231,65.6061 712,60.5C 712.785,52.066 712.285,43.7327 710.5,35.5 Z M 701.5,109.5 C 697.943,125.395 693.61,141.062 688.5,156.5C 686.079,152.66 683.912,148.66 682,144.5C 682.256,129.318 688.756,117.651 701.5,109.5 Z"/></g>
<g><path style="opacity:0.967" fill="#651319" d="M 1021.5,74.5 C 1033.5,77.1103 1044.5,81.9436 1054.5,89C 1056.59,90.8527 1057.59,93.1861 1057.5,96C 1056.97,98.8166 1056.64,101.65 1056.5,104.5C 1079.89,99.655 1103.22,94.4883 1126.5,89C 1135.79,87.5173 1145.12,87.184 1154.5,88C 1174.77,92.0778 1183.6,104.244 1181,124.5C 1177.8,133.538 1171.63,139.205 1162.5,141.5C 1161.23,141.43 1160.06,141.097 1159,140.5C 1159,137.833 1159,135.167 1159,132.5C 1151.28,124.395 1141.78,120.228 1130.5,120C 1120.47,119.387 1110.47,119.721 1100.5,121C 1083.18,123.248 1066.01,126.081 1049,129.5C 1040.7,160.686 1033.04,192.019 1026,223.5C 1022.21,244.354 1020.21,265.354 1020,286.5C 1028.56,282.607 1035.23,276.607 1040,268.5C 1041.89,249.356 1047.39,231.689 1056.5,215.5C 1065.57,219.202 1074.24,223.702 1082.5,229C 1087.53,232.231 1090.03,236.731 1090,242.5C 1082.51,254.451 1077.68,267.451 1075.5,281.5C 1075.24,286.706 1077.58,289.706 1082.5,290.5C 1096.34,288.497 1106.84,281.497 1114,269.5C 1120.63,258.294 1125.29,246.294 1128,233.5C 1130,225.149 1127.5,218.649 1120.5,214C 1115.77,211.534 1110.77,209.867 1105.5,209C 1090.84,208.5 1076.17,208.333 1061.5,208.5C 1063.96,197.798 1064.12,187.131 1062,176.5C 1074.35,164.238 1088.85,155.405 1105.5,150C 1115.79,146.635 1126.29,144.135 1137,142.5C 1153.8,146.647 1159.46,156.98 1154,173.5C 1151.74,179.94 1147.24,182.94 1140.5,182.5C 1141.13,179.03 1140.13,176.196 1137.5,174C 1128.17,168.793 1118.5,168.127 1108.5,172C 1104.05,173.726 1099.71,175.726 1095.5,178C 1115.25,180.247 1132.42,188.081 1147,201.5C 1158.06,214.477 1161.06,229.144 1156,245.5C 1142.19,289.177 1112.36,308.343 1066.5,303C 1056.89,301.385 1049.39,296.552 1044,288.5C 1038.83,294.01 1032.83,298.343 1026,301.5C 1015.63,299.042 1005.79,295.209 996.5,290C 992.333,287.167 988.833,283.667 986,279.5C 979.503,289.667 970.836,297.333 960,302.5C 948.3,299.938 937.466,295.438 927.5,289C 923.908,286.079 921.075,282.579 919,278.5C 917.628,272.23 916.628,265.896 916,259.5C 911.785,272.813 906.785,285.813 901,298.5C 899.509,300.004 897.676,300.837 895.5,301C 855.108,304.586 839.608,286.42 849,246.5C 851.232,216.212 860.232,188.212 876,162.5C 885.197,150.1 897.363,145.6 912.5,149C 922.505,150.609 931.505,154.442 939.5,160.5C 940.452,162.045 940.785,163.712 940.5,165.5C 926.912,164.877 916.412,170.21 909,181.5C 891.072,212.207 884.072,245.207 888,280.5C 908.999,247.821 923.999,212.488 933,174.5C 933.759,172.365 935.259,171.032 937.5,170.5C 944.769,172.646 951.769,175.479 958.5,179C 962,181.167 964.833,184 967,187.5C 967.667,190.5 967.667,193.5 967,196.5C 957.67,226.144 953.003,256.478 953,287.5C 968.038,278.784 978.371,266.117 984,249.5C 986.018,233.392 988.685,217.392 992,201.5C 997.171,178.818 1002.34,156.151 1007.5,133.5C 987.978,135.319 968.645,134.152 949.5,130C 941.569,127.304 937.069,121.804 936,113.5C 935.514,107.425 936.014,101.425 937.5,95.5C 938.833,95.5 940.167,95.5 941.5,95.5C 940.2,103.693 943.533,108.86 951.5,111C 959.649,113.394 967.983,114.561 976.5,114.5C 988.524,113.999 1000.52,113.165 1012.5,112C 1015.73,102.707 1018.4,93.2072 1020.5,83.5C 1018.9,80.2019 1019.23,77.2019 1021.5,74.5 Z"/></g>
<g><path style="opacity:0.992" fill="#75161d" d="M 550.5,86.5 C 570.503,86.3334 590.503,86.5 610.5,87C 612.939,87.7739 614.773,89.2739 616,91.5C 616.667,172.833 616.667,254.167 616,335.5C 614.833,336.667 613.667,337.833 612.5,339C 591.5,339.667 570.5,339.667 549.5,339C 547.333,338.167 545.833,336.667 545,334.5C 544.333,253.5 544.333,172.5 545,91.5C 546.73,89.5981 548.563,87.9314 550.5,86.5 Z"/></g>
</svg>
