<?xml version="1.0" encoding="UTF-8"?>
<!DOCTYPE svg PUBLIC "-//W3C//DTD SVG 1.1//EN" "http://www.w3.org/Graphics/SVG/1.1/DTD/svg11.dtd">
<svg xmlns="http://www.w3.org/2000/svg" version="1.1" width="1204px" height="344px" style="shape-rendering:geometricPrecision; text-rendering:geometricPrecision; image-rendering:optimizeQuality; fill-rule:evenodd; clip-rule:evenodd" xmlns:xlink="http://www.w3.org/1999/xlink">
<g><path style="opacity:0.959" fill="#651319" d="M 303.5,80.5 C 310.911,80.4361 317.911,82.1027 324.5,85.5C 344.487,80.4406 364.487,80.274 384.5,85C 390.053,88.6055 393.22,93.7721 394,100.5C 396.53,109.448 396.863,118.448 395,127.5C 389.661,132.918 383.328,134.585 376,132.5C 375.219,131.056 375.386,129.723 376.5,128.5C 383.724,125.212 385.224,120.212 381,113.5C 378.766,111.3 376.266,109.467 373.5,108C 366.553,105.423 359.387,103.923 352,103.5C 342.695,104.461 333.529,106.128 324.5,108.5C 322.007,123.638 318.341,138.471 313.5,153C 323.674,153.906 333.674,153.073 343.5,150.5C 345.891,152.366 346.891,154.866 346.5,158C 346.43,161.949 345.43,165.616 343.5,169C 342.167,169.333 340.833,169.667 339.5,170C 328.887,170.124 318.387,170.958 308,172.5C 299.22,197.839 295.22,223.839 296,250.5C 287.549,251.637 279.882,249.637 273,244.5C 271.437,239.282 271.104,233.949 272,228.5C 274.555,210.393 278.388,192.559 283.5,175C 275.067,159.167 271.9,142.334 274,124.5C 276.457,115.76 281.29,108.594 288.5,103C 293.583,99.7079 298.75,96.5412 304,93.5C 304.59,89.703 304.09,86.0363 302.5,82.5C 302.863,81.8165 303.196,81.1499 303.5,80.5 Z M 297.5,123.5 C 295.852,132.28 293.686,140.947 291,149.5C 288.973,146.779 287.473,143.779 286.5,140.5C 287.381,137.07 288.548,133.737 290,130.5C 291.736,127.261 294.236,124.927 297.5,123.5 Z"/></g>
<g><path style="opacity:0.945" fill="#651319" d="M 778.5,101.5 C 787.042,101.853 794.542,104.853 801,110.5C 801.497,113.146 801.664,115.813 801.5,118.5C 816.166,115.4 830.833,112.233 845.5,109C 855.829,106.703 864.996,108.869 873,115.5C 879.259,126.245 877.093,134.745 866.5,141C 865.207,141.49 863.873,141.657 862.5,141.5C 862.204,134.032 858.204,129.866 850.5,129C 832.303,128.099 814.303,129.599 796.5,133.5C 791.846,151.782 787.346,170.116 783,188.5C 780.504,201.114 779.338,213.781 779.5,226.5C 787.364,221.801 792.864,215.134 796,206.5C 797.044,187.699 803.044,170.699 814,155.5C 825.263,142.387 838.096,140.887 852.5,151C 861.396,159.228 862.896,168.728 857,179.5C 846.218,192.067 833.218,201.734 818,208.5C 817.333,212.167 817.333,215.833 818,219.5C 818.229,222.458 819.396,224.958 821.5,227C 836.407,230.03 848.573,225.53 858,213.5C 859.451,203.815 862.118,194.481 866,185.5C 866.725,184.941 867.558,184.608 868.5,184.5C 874.703,187.185 880.536,190.518 886,194.5C 886.85,196.01 887.683,197.51 888.5,199C 884.024,206.59 881.024,214.757 879.5,223.5C 879.621,224.894 879.954,226.228 880.5,227.5C 888.538,228.906 895.038,226.24 900,219.5C 907.536,209.582 910.536,198.582 909,186.5C 905.557,183.126 901.39,181.293 896.5,181C 887.84,180.5 879.173,180.334 870.5,180.5C 871.74,174.486 871.74,168.486 870.5,162.5C 875.89,155.966 882.556,151.132 890.5,148C 900.098,143.765 910.098,141.765 920.5,142C 927.07,145.655 929.237,151.155 927,158.5C 923.513,166.713 919.679,167.213 915.5,160C 907.596,156.838 899.93,157.504 892.5,162C 929.815,170.124 938.315,190.291 918,222.5C 902.869,237.106 885.369,240.939 865.5,234C 862.567,231.736 860.4,228.902 859,225.5C 843.356,237.771 826.522,239.605 808.5,231C 804.908,228.079 802.075,224.579 800,220.5C 795.79,226.378 790.623,231.211 784.5,235C 776.538,234.903 769.204,232.569 762.5,228C 760.951,226.786 759.785,225.286 759,223.5C 755.545,229.289 751.045,234.122 745.5,238C 735.002,238.054 726.168,234.221 719,226.5C 717.053,214.48 717.386,202.48 720,190.5C 723.162,175.522 726.162,160.522 729,145.5C 736.143,145.214 742.643,147.381 748.5,152C 750.124,153.117 751.124,154.617 751.5,156.5C 744.355,180.034 740.688,204.034 740.5,228.5C 748.028,224.122 753.194,217.788 756,209.5C 759.583,185.167 764.75,161.167 771.5,137.5C 766.198,136.337 760.864,136.171 755.5,137C 754.586,138.914 753.086,140.081 751,140.5C 744.816,138.654 738.982,136.154 733.5,133C 729.531,130.223 727.864,126.39 728.5,121.5C 728.667,119.5 728.833,117.5 729,115.5C 729.71,114.027 730.876,113.36 732.5,113.5C 731.828,116.908 732.828,119.575 735.5,121.5C 738.392,115.117 741.892,109.117 746,103.5C 747.726,102.424 749.559,102.257 751.5,103C 755.422,106.251 758.588,110.084 761,114.5C 761.784,117.76 761.617,120.927 760.5,124C 765.142,123.937 769.809,123.604 774.5,123C 777.24,115.918 778.573,108.751 778.5,101.5 Z M 846.5,158.5 C 850.062,158.564 851.729,160.397 851.5,164C 851.048,167.409 849.881,170.576 848,173.5C 840.202,181.638 831.535,188.638 822,194.5C 824.972,178.867 833.139,166.867 846.5,158.5 Z"/></g>
<g><path style="opacity:0.945" fill="#651319" d="M 475.5,136.5 C 485.009,138.51 490.675,144.343 492.5,154C 489.407,180.296 480.24,204.13 465,225.5C 460.946,230.057 456.446,234.057 451.5,237.5C 442.179,235.345 435.346,230.012 431,221.5C 426.79,227.378 421.623,232.211 415.5,236C 405.633,235.318 397.133,231.485 390,224.5C 388.109,220.389 387.109,216.056 387,211.5C 384.416,219.59 381.249,227.424 377.5,235C 369.287,237.161 361.287,236.495 353.5,233C 351,231.833 349.167,230 348,227.5C 343.61,200.115 348.944,174.782 364,151.5C 369.591,145.526 376.425,143.359 384.5,145C 391.131,145.762 396.964,148.262 402,152.5C 402.483,153.448 402.649,154.448 402.5,155.5C 394.768,154.636 388.601,157.303 384,163.5C 372.892,181.602 368.225,201.268 370,222.5C 382.793,203.571 391.793,182.905 397,160.5C 397.839,159.376 399.006,158.709 400.5,158.5C 405.512,159.508 410.179,161.341 414.5,164C 416.871,165.743 418.205,168.077 418.5,171C 413.668,186.657 410.668,202.657 409.5,219C 409.833,221.5 410.167,224 410.5,226.5C 418.946,221.289 424.78,213.956 428,204.5C 428.846,183.602 433.513,163.602 442,144.5C 445.452,140.954 449.618,139.787 454.5,141C 461.869,142.551 466.869,146.718 469.5,153.5C 467.097,153.393 465.264,154.393 464,156.5C 456.002,172.135 451.669,188.801 451,206.5C 450.333,212.5 450.333,218.5 451,224.5C 464.852,206.964 472.852,186.964 475,164.5C 475.334,158.651 475.834,152.817 476.5,147C 476.333,144.003 475.333,141.337 473.5,139C 474.056,137.989 474.722,137.156 475.5,136.5 Z"/></g>
<g><path style="opacity:0.942" fill="#651319" d="M 535.5,138.5 C 547.852,138.347 556.352,144.014 561,155.5C 566.908,185.777 558.741,211.61 536.5,233C 532.796,235.852 528.796,238.185 524.5,240C 513.51,240.59 504.01,237.09 496,229.5C 489.637,206.04 492.971,184.04 506,163.5C 511.016,158.704 516.516,158.204 522.5,162C 525.284,164.112 527.284,166.779 528.5,170C 525.013,174.155 521.513,178.322 518,182.5C 511.671,195.798 509.338,209.798 511,224.5C 511.637,226.303 512.803,227.636 514.5,228.5C 525.172,223.995 532.672,216.328 537,205.5C 541.911,193.948 543.577,181.948 542,169.5C 541.068,161.934 537.068,156.934 530,154.5C 526.07,157.75 523.904,156.916 523.5,152C 523.615,149.268 524.448,146.768 526,144.5C 528.843,141.837 532.009,139.837 535.5,138.5 Z"/></g>
<g><path style="opacity:0.95" fill="#651319" d="M 587.5,140.5 C 596.115,140.058 603.281,143.058 609,149.5C 609.49,150.793 609.657,152.127 609.5,153.5C 607.61,153.297 606.11,153.963 605,155.5C 594.322,176.563 589.989,198.896 592,222.5C 597.496,216.037 601.496,208.704 604,200.5C 610.049,182.131 615.549,163.631 620.5,145C 626.309,144.892 631.642,146.558 636.5,150C 638.904,151.403 640.571,153.403 641.5,156C 634.297,179.154 630.297,202.654 629.5,226.5C 637.303,221.852 642.803,215.186 646,206.5C 649.359,185.718 653.192,165.218 657.5,145C 665.45,145.375 672.45,148.208 678.5,153.5C 678.833,154.667 679.167,155.833 679.5,157C 677.899,164.226 676.399,171.393 675,178.5C 681.914,165.843 690.414,154.343 700.5,144C 706.809,143.979 712.476,145.979 717.5,150C 719.357,151.182 720.357,152.849 720.5,155C 716.929,165.713 713.762,176.546 711,187.5C 704.155,188.121 697.655,186.621 691.5,183C 689.219,180.293 688.885,177.293 690.5,174C 690.389,172.278 689.889,172.112 689,173.5C 676.779,193.16 668.279,214.327 663.5,237C 657.605,236.609 651.938,235.109 646.5,232.5C 645.702,230.922 645.202,229.256 645,227.5C 641.04,232.19 636.207,235.023 630.5,236C 622.236,234.119 615.069,230.286 609,224.5C 608.333,222.5 607.667,220.5 607,218.5C 603.716,226.421 598.549,232.755 591.5,237.5C 574.037,231.936 566.703,219.936 569.5,201.5C 569.758,181.468 574.258,162.468 583,144.5C 584.397,142.93 585.897,141.596 587.5,140.5 Z"/></g>
</svg>
