<?xml version="1.0" encoding="UTF-8"?>
<!DOCTYPE svg PUBLIC "-//W3C//DTD SVG 1.1//EN" "http://www.w3.org/Graphics/SVG/1.1/DTD/svg11.dtd">
<svg xmlns="http://www.w3.org/2000/svg" version="1.1" width="1204px" height="344px" style="shape-rendering:geometricPrecision; text-rendering:geometricPrecision; image-rendering:optimizeQuality; fill-rule:evenodd; clip-rule:evenodd" xmlns:xlink="http://www.w3.org/1999/xlink">
<g><path style="opacity:0.954" fill="#651319" d="M 403.5,83.5 C 414.475,82.9408 425.142,84.4408 435.5,88C 441.781,93.7213 445.614,100.888 447,109.5C 450.613,127.534 449.78,145.367 444.5,163C 454.359,172.358 463.692,182.192 472.5,192.5C 481.02,161.089 489.853,129.755 499,98.5C 500.073,94.4471 500.407,90.4471 500,86.5C 508.468,85.0576 515.801,87.3909 522,93.5C 522.667,95.5 522.667,97.5 522,99.5C 510.609,137.396 500.943,175.73 493,214.5C 490.956,222.735 490.29,231.068 491,239.5C 491.93,241.936 493.097,244.269 494.5,246.5C 488.594,253.486 481.261,255.319 472.5,252C 465.579,250.517 462.579,246.184 463.5,239C 464.537,228.772 466.537,218.772 469.5,209C 460.569,197.899 450.235,188.399 438.5,180.5C 424.408,206.767 405.408,228.934 381.5,247C 356.42,258.272 335.253,253.106 318,231.5C 312.149,198.893 325.315,178.227 357.5,169.5C 369.182,172.602 378.349,179.268 385,189.5C 385.743,191.441 385.576,193.274 384.5,195C 356.604,189.999 339.271,201.499 332.5,229.5C 345.032,232.358 357.032,230.525 368.5,224C 388.746,210.756 404.413,193.423 415.5,172C 405.221,168.903 394.888,168.903 384.5,172C 382.628,174.944 379.961,176.111 376.5,175.5C 378.419,163.493 384.086,153.66 393.5,146C 404.297,143.139 414.464,144.639 424,150.5C 428.642,135.771 429.975,120.771 428,105.5C 426.947,92.8941 421.114,89.7274 410.5,96C 401.438,105.45 394.105,116.116 388.5,128C 382.091,126.958 377.258,123.458 374,117.5C 372.475,110.886 374.142,105.22 379,100.5C 386.308,93.4429 394.475,87.7762 403.5,83.5 Z"/></g>
<g><path style="opacity:0.947" fill="#651319" d="M 634.5,100.5 C 643.283,101.035 650.783,104.369 657,110.5C 657.687,112.568 657.52,114.568 656.5,116.5C 657.167,116.833 657.833,117.167 658.5,117.5C 672.822,114.269 687.155,111.102 701.5,108C 712.765,105.353 722.265,108.186 730,116.5C 734.781,127.658 731.614,135.658 720.5,140.5C 717.501,139.844 716.834,138.177 718.5,135.5C 715.286,131.131 710.952,128.631 705.5,128C 687.42,126.705 669.754,128.539 652.5,133.5C 643.978,159.921 638.145,186.921 635,214.5C 634.333,218.167 634.333,221.833 635,225.5C 646.403,218.368 652.403,208.035 653,194.5C 654.498,183.671 658.164,173.671 664,164.5C 671.2,156.797 678.534,156.797 686,164.5C 687.373,166.695 687.706,169.029 687,171.5C 680.004,176.503 675.337,183.169 673,191.5C 669.679,202.715 669.012,214.049 671,225.5C 671.689,226.357 672.522,227.023 673.5,227.5C 687.178,221.503 695.678,211.17 699,196.5C 703.884,183.957 703.551,171.623 698,159.5C 694.651,154.704 690.484,153.371 685.5,155.5C 683.616,154.885 682.616,153.552 682.5,151.5C 686.068,139.214 694.068,135.047 706.5,139C 714.962,143.744 720.128,150.911 722,160.5C 725.057,189.333 715.89,213.5 694.5,233C 686.737,239.919 678.07,241.252 668.5,237C 661.457,234.621 656.29,230.121 653,223.5C 649.419,227.752 645.252,231.252 640.5,234C 630.567,234.021 622.067,230.521 615,223.5C 613.087,219.741 612.253,215.741 612.5,211.5C 613.118,201.767 614.285,192.101 616,182.5C 619.662,166.853 623.162,151.187 626.5,135.5C 618.16,135.666 609.827,135.5 601.5,135C 586.281,134.731 580.614,127.231 584.5,112.5C 585.5,112.5 586.5,112.5 587.5,112.5C 587.318,117.489 589.651,120.655 594.5,122C 606.521,124.007 618.521,123.841 630.5,121.5C 632.95,114.704 634.283,107.704 634.5,100.5 Z"/></g>
<g><path style="opacity:0.936" fill="#651319" d="M 530.5,101.5 C 532.199,101.34 533.866,101.506 535.5,102C 541.662,106.142 545.329,111.808 546.5,119C 543.755,124.226 541.589,129.726 540,135.5C 538.924,137.577 537.257,138.91 535,139.5C 523.214,137.726 518.547,131.059 521,119.5C 523.413,113.003 526.58,107.003 530.5,101.5 Z"/></g>
<g><path style="opacity:0.952" fill="#651319" d="M 818.5,139.5 C 827.115,139.058 834.281,142.058 840,148.5C 840.49,149.793 840.657,151.127 840.5,152.5C 837.708,152.452 835.875,153.785 835,156.5C 825.293,177.071 821.293,198.738 823,221.5C 829.498,213.506 834.164,204.506 837,194.5C 842.072,177.949 846.739,161.283 851,144.5C 857.28,144.362 863.113,146.195 868.5,150C 870.227,151.389 871.561,153.056 872.5,155C 865.36,178.359 861.194,202.192 860,226.5C 870.074,219.717 876.741,210.383 880,198.5C 880.695,194.467 881.528,190.467 882.5,186.5C 886.672,188.828 889.005,192.328 889.5,197C 887.845,210.812 881.845,222.312 871.5,231.5C 874.828,234.658 878.328,237.658 882,240.5C 897.038,262.057 892.538,278.223 868.5,289C 844.031,295.571 819.365,296.238 794.5,291C 788.973,289.935 783.64,288.269 778.5,286C 775.404,274.13 777.237,262.963 784,252.5C 791.276,248.833 798.776,248.5 806.5,251.5C 806.833,251.833 807.167,252.167 807.5,252.5C 794.869,257.189 794.536,262.356 806.5,268C 825.319,274.302 843.986,273.968 862.5,267C 871.2,263.021 874.366,256.521 872,247.5C 869.795,244.96 867.295,242.793 864.5,241C 857.129,237.907 849.462,235.907 841.5,235C 840.667,234.167 839.833,233.333 839,232.5C 838.579,228.128 837.912,223.795 837,219.5C 833.933,226.298 829.433,231.965 823.5,236.5C 805.473,231.122 798.139,219.122 801.5,200.5C 800.773,180.41 804.94,161.41 814,143.5C 815.397,141.93 816.897,140.596 818.5,139.5 Z"/></g>
<g><path style="opacity:0.944" fill="#651319" d="M 589.5,140.5 C 602.312,139.816 607.478,145.816 605,158.5C 603.395,162.276 600.562,164.276 596.5,164.5C 596.617,162.516 595.95,160.85 594.5,159.5C 586.328,155.689 578.328,156.189 570.5,161C 580.788,162.812 590.121,166.812 598.5,173C 606.541,180.996 609.041,190.496 606,201.5C 595.909,230.799 575.742,241.632 545.5,234C 543.04,232.542 540.873,230.709 539,228.5C 535.751,232.936 531.585,235.936 526.5,237.5C 517.992,235.829 510.492,232.162 504,226.5C 501.554,219.715 500.887,212.715 502,205.5C 504.489,186.22 508.323,167.22 513.5,148.5C 511.774,145.5 512.608,143.834 516,143.5C 521.442,144.97 526.609,147.136 531.5,150C 533.677,151.497 535.01,153.497 535.5,156C 528.576,179.706 524.743,203.873 524,228.5C 528.506,226.082 532.173,222.749 535,218.5C 536.44,206.737 539.44,195.404 544,184.5C 544.725,183.941 545.558,183.608 546.5,183.5C 554.154,186.234 560.654,190.567 566,196.5C 566.667,197.833 566.667,199.167 566,200.5C 560.322,208.354 557.822,217.021 558.5,226.5C 563.608,228.112 568.275,227.278 572.5,224C 581.867,214.933 587.534,203.933 589.5,191C 588.202,185.702 584.869,182.369 579.5,181C 569.197,179.962 558.864,179.129 548.5,178.5C 549.833,172.833 549.833,167.167 548.5,161.5C 553.89,154.966 560.556,150.132 568.5,147C 575.527,144.488 582.527,142.321 589.5,140.5 Z"/></g>
<g><path style="opacity:0.948" fill="#651319" d="M 781.5,142.5 C 789.039,143.185 795.539,146.185 801,151.5C 801.667,153.5 801.667,155.5 801,157.5C 797.622,167.299 794.456,177.132 791.5,187C 783.981,187.049 777.148,184.883 771,180.5C 770.397,177.344 770.897,174.344 772.5,171.5C 772.154,170.304 771.654,170.304 771,171.5C 758.492,191.194 749.826,212.528 745,235.5C 738.991,235.71 733.157,234.376 727.5,231.5C 726.104,218.767 726.604,206.1 729,193.5C 732.494,176.865 735.661,160.198 738.5,143.5C 747.088,144.417 754.588,147.75 761,153.5C 759.49,161.872 757.823,170.205 756,178.5C 763.165,165.51 771.665,153.51 781.5,142.5 Z"/></g>
</svg>
